<?xml version="1.0" encoding="UTF-8" ?>
<!DOCTYPE svg PUBLIC "-//W3C//DTD SVG 1.1//EN" "http://www.w3.org/Graphics/SVG/1.1/DTD/svg11.dtd">
<svg width="296pt" height="80pt" viewBox="0 0 296 80" version="1.1" xmlns="http://www.w3.org/2000/svg">
<g id="#ffffffff">
<path fill="#ffffff" opacity="1.00" d=" M 54.89 0.00 L 60.74 0.00 C 64.60 0.98 68.26 3.18 70.42 6.60 C 74.99 13.35 72.90 23.62 65.80 27.80 C 58.44 32.67 47.32 29.48 43.88 21.28 C 39.62 12.75 45.42 1.39 54.89 0.00 Z" />
<path fill="#ffffff" opacity="1.00" d=" M 185.26 4.74 C 187.96 4.03 187.59 8.85 185.12 7.78 C 183.36 7.69 183.61 4.71 185.26 4.74 Z" />
<path fill="#ffffff" opacity="1.00" d=" M 176.86 4.19 C 177.38 4.61 178.43 5.44 178.95 5.86 C 179.02 13.77 179.08 21.70 178.91 29.62 C 178.39 29.78 177.34 30.10 176.82 30.26 C 176.73 21.57 176.66 12.88 176.86 4.19 Z" />
<path fill="#ffffff" opacity="1.00" d=" M 205.60 4.40 C 206.09 4.66 207.09 5.17 207.59 5.43 C 207.91 13.43 207.77 21.47 207.66 29.48 C 207.19 29.71 206.25 30.19 205.78 30.42 C 205.71 29.64 205.55 28.07 205.48 27.28 C 203.03 29.97 198.98 31.17 195.60 29.55 C 189.20 26.52 189.12 15.91 195.30 12.59 C 198.71 10.88 202.88 11.84 205.56 14.44 C 205.47 11.10 205.44 7.74 205.60 4.40 M 196.39 14.42 C 191.23 17.56 192.39 27.75 198.91 28.29 C 203.35 28.71 206.29 24.10 205.54 20.05 C 206.36 15.30 200.24 12.11 196.39 14.42 Z" />
<path fill="#ffffff" opacity="1.00" d=" M 135.79 5.82 C 137.45 5.41 138.78 6.06 139.12 7.76 C 141.57 14.20 143.86 20.69 146.24 27.15 C 148.94 20.16 151.21 12.98 154.17 6.10 C 154.78 6.01 156.01 5.82 156.63 5.73 C 153.67 13.92 150.85 22.27 147.07 30.10 C 146.56 30.02 145.53 29.86 145.02 29.77 C 141.65 21.92 138.68 13.87 135.79 5.82 Z" />
<path fill="#ffffff" opacity="1.00" d=" M 238.36 8.30 C 238.91 8.31 240.02 8.33 240.57 8.34 C 240.66 9.63 240.74 10.92 240.82 12.21 C 243.00 12.27 245.30 11.97 247.27 13.17 C 245.34 14.53 242.97 14.27 240.75 14.29 C 240.89 18.50 240.44 22.75 240.98 26.93 C 242.01 29.36 244.80 27.66 246.56 27.25 C 247.38 31.34 239.53 31.21 238.71 27.58 C 237.76 23.30 238.44 18.85 238.27 14.50 C 237.55 14.34 236.11 14.04 235.39 13.88 C 235.70 12.58 236.63 11.96 238.20 12.01 C 238.25 10.78 238.30 9.54 238.36 8.30 Z" />
<path fill="#ffffff" opacity="1.00" d=" M 158.00 17.51 C 157.05 10.48 170.07 9.57 171.55 16.12 C 172.38 20.81 171.93 25.62 171.91 30.36 C 170.45 30.03 169.70 28.98 169.37 27.60 C 166.78 30.07 162.82 31.13 159.49 29.52 C 156.49 27.95 156.30 23.11 159.18 21.35 C 162.34 19.39 166.21 19.50 169.78 19.11 C 169.40 16.96 168.65 14.33 166.08 14.07 C 162.79 13.16 160.29 15.62 158.00 17.51 M 160.27 23.28 C 158.18 25.32 160.43 28.71 163.08 28.29 C 167.12 28.79 170.25 25.08 169.63 21.19 C 166.46 21.40 162.90 21.17 160.27 23.28 Z" />
<path fill="#ffffff" opacity="1.00" d=" M 184.53 12.09 C 185.07 12.10 186.15 12.11 186.69 12.12 C 186.77 18.06 186.82 24.01 186.66 29.95 C 186.12 29.93 185.06 29.90 184.52 29.88 C 184.49 23.95 184.47 18.02 184.53 12.09 Z" />
<path fill="#ffffff" opacity="1.00" d=" M 212.84 17.52 C 211.14 14.65 214.54 12.57 216.99 12.04 C 220.37 10.98 225.00 12.33 226.03 16.04 C 226.89 20.80 226.47 25.69 226.35 30.50 C 225.12 29.91 224.24 28.98 223.72 27.71 C 221.15 30.16 217.08 31.17 213.86 29.40 C 211.06 27.86 210.84 23.37 213.43 21.53 C 216.59 19.36 220.62 19.51 224.27 19.13 C 223.80 17.41 223.65 15.10 221.66 14.42 C 218.33 12.90 214.91 14.93 212.84 17.52 M 214.21 24.13 C 212.76 27.93 218.02 29.26 220.65 27.77 C 223.51 26.91 224.20 23.78 224.14 21.16 C 220.82 21.54 216.35 20.96 214.21 24.13 Z" />
<path fill="#ffffff" opacity="1.00" d=" M 249.72 17.02 C 249.92 14.96 248.88 11.50 252.09 11.74 C 252.43 15.82 252.07 19.91 252.34 23.99 C 252.54 26.71 255.40 28.61 258.01 27.94 C 260.03 27.80 261.24 26.05 262.54 24.73 C 262.71 20.60 261.95 16.31 262.93 12.30 C 263.41 12.18 264.38 11.94 264.86 11.82 C 265.11 17.98 265.03 24.16 264.92 30.33 C 263.19 30.09 262.64 28.82 262.58 27.24 C 260.11 30.67 254.59 31.45 251.63 28.25 C 249.03 25.13 249.91 20.76 249.72 17.02 Z" />
<path fill="#ffffff" opacity="1.00" d=" M 10.56 24.70 C 15.12 22.45 21.05 25.88 21.42 30.92 C 22.43 37.09 14.67 41.99 9.54 38.37 C 4.35 35.48 4.96 26.78 10.56 24.70 Z" />
<path fill="#ffffff" opacity="1.00" d=" M 96.50 24.73 C 101.07 22.42 107.07 25.87 107.43 30.95 C 108.40 37.10 100.69 41.96 95.57 38.39 C 90.38 35.53 90.93 26.86 96.50 24.73 Z" />
<path fill="#ffffff" opacity="1.00" d=" M 47.43 34.54 C 54.23 34.45 61.04 34.49 67.84 34.52 C 74.34 34.62 80.34 39.66 81.35 46.11 C 82.30 53.45 83.36 60.78 84.09 68.14 C 84.39 71.42 81.32 74.50 78.02 74.01 C 64.33 73.99 50.65 74.01 36.96 74.00 C 33.77 74.31 30.90 71.12 31.27 67.99 C 31.74 62.95 32.58 57.96 33.13 52.94 C 33.73 49.11 33.60 44.97 35.69 41.56 C 38.04 37.36 42.67 34.75 47.43 34.54 Z" />
<path fill="#ffffff" opacity="1.00" d=" M 0.79 54.06 C 1.42 49.82 1.11 43.86 6.07 42.14 C 10.30 41.30 14.72 41.91 19.02 41.76 C 22.47 41.63 25.41 44.61 25.79 47.94 C 26.36 52.00 26.90 56.08 27.13 60.18 C 26.16 60.82 25.28 61.93 23.98 61.73 C 16.73 61.72 9.46 61.85 2.21 61.67 C -0.98 60.41 0.71 56.58 0.79 54.06 Z" />
<path fill="#ffffff" opacity="1.00" d=" M 88.76 44.76 C 91.94 40.05 98.27 42.23 103.00 41.73 C 106.73 41.11 110.83 43.23 111.62 47.11 C 112.35 51.44 112.85 55.81 113.12 60.19 C 112.15 60.83 111.28 61.93 109.97 61.73 C 103.01 61.77 96.04 61.77 89.07 61.73 C 87.20 61.90 85.82 59.84 86.32 58.10 C 87.11 53.68 86.71 48.85 88.76 44.76 Z" />
<path fill="#ffffff" opacity="1.00" d=" M 138.42 44.60 C 140.96 42.75 144.61 46.77 141.83 48.82 C 139.09 51.65 134.62 46.43 138.42 44.60 Z" />
<path fill="#ffffff" opacity="1.00" d=" M 225.47 44.54 C 228.12 42.83 231.58 46.85 228.79 48.85 C 225.98 51.64 221.64 46.33 225.47 44.54 Z" />
<path fill="#ffffff" opacity="1.00" d=" M 159.60 44.84 C 161.52 44.86 164.39 44.96 164.57 47.49 C 164.97 54.30 164.70 61.16 164.71 67.99 C 165.11 71.42 159.55 71.35 159.35 68.10 C 157.34 70.28 154.25 71.45 151.35 70.41 C 143.90 68.13 143.46 55.85 150.40 52.66 C 153.51 51.27 157.16 52.11 159.57 54.43 C 159.45 51.24 159.46 48.03 159.60 44.84 M 154.25 56.05 C 149.19 56.99 149.21 65.59 154.19 66.70 C 157.43 67.44 160.21 64.15 159.54 61.02 C 160.21 57.97 157.16 55.37 154.25 56.05 Z" />
<path fill="#ffffff" opacity="1.00" d=" M 246.60 44.84 C 248.14 45.07 250.07 44.67 251.12 46.16 C 252.09 48.30 251.66 50.72 251.76 52.99 C 251.64 58.25 251.95 63.52 251.62 68.77 C 251.16 71.63 246.48 70.88 246.35 68.10 C 244.36 70.27 241.29 71.43 238.40 70.43 C 230.91 68.20 230.44 55.88 237.39 52.67 C 240.50 51.26 244.18 52.11 246.58 54.47 C 246.45 51.26 246.46 48.05 246.60 44.84 M 241.26 56.04 C 236.21 56.98 236.20 65.55 241.16 66.69 C 244.43 67.47 247.23 64.12 246.54 60.97 C 247.18 57.93 244.14 55.39 241.26 56.04 Z" />
<path fill="#ffffff" opacity="1.00" d=" M 288.79 44.89 C 290.95 44.65 293.96 45.21 293.90 47.99 C 294.10 54.68 294.02 61.39 293.95 68.08 C 294.26 71.48 288.71 71.27 288.54 68.09 C 285.84 71.48 280.45 71.57 277.43 68.57 C 273.89 64.76 273.81 58.18 277.29 54.31 C 280.32 51.12 285.81 51.33 288.83 54.43 C 288.71 51.25 288.73 48.07 288.79 44.89 M 282.27 56.45 C 277.79 58.77 279.48 67.61 285.01 66.70 C 288.95 66.23 289.37 61.44 288.49 58.39 C 287.44 56.18 284.40 55.36 282.27 56.45 Z" />
<path fill="#ffffff" opacity="1.00" d=" M 210.88 52.25 C 210.78 50.23 211.21 47.04 214.03 47.75 C 216.54 47.65 215.91 50.85 216.09 52.45 C 218.15 52.56 222.06 51.90 221.31 55.21 C 220.24 57.14 217.78 56.30 216.00 56.57 C 216.16 59.65 215.59 62.85 216.34 65.86 C 217.40 67.77 219.77 65.98 221.24 65.58 C 223.27 71.62 213.00 72.58 211.48 67.64 C 210.53 64.12 211.17 60.40 211.00 56.80 C 209.59 56.32 207.36 56.16 208.04 54.05 C 207.83 52.46 209.96 52.85 210.88 52.25 Z" />
<path fill="#ffffff" opacity="1.00" d=" M 138.40 52.44 C 139.44 52.13 140.48 52.14 141.52 52.47 C 143.12 54.26 142.32 56.80 142.51 58.96 C 142.27 62.61 143.05 66.41 141.98 69.95 C 140.63 70.83 137.81 70.97 137.41 68.98 C 137.04 64.97 137.34 60.93 137.23 56.91 C 137.30 55.38 136.95 53.47 138.40 52.44 Z" />
<path fill="#ffffff" opacity="1.00" d=" M 171.60 53.60 C 175.37 51.06 180.97 51.65 183.92 55.18 C 185.58 57.20 185.76 59.93 185.70 62.44 C 181.11 62.59 176.51 62.41 171.92 62.58 C 172.88 64.68 174.35 67.02 176.97 67.00 C 179.54 67.46 181.41 65.50 183.10 63.90 C 184.30 65.06 185.65 66.74 184.29 68.35 C 181.01 71.29 175.76 71.44 171.94 69.45 C 166.23 66.33 166.22 57.04 171.60 53.60 M 171.95 59.64 C 175.07 59.79 178.20 59.77 181.32 59.71 C 180.63 57.90 179.75 55.74 177.52 55.55 C 174.76 54.96 173.01 57.50 171.95 59.64 Z" />
<path fill="#ffffff" opacity="1.00" d=" M 188.77 52.41 C 190.93 52.00 193.11 52.48 193.99 54.72 C 196.83 51.09 203.32 51.01 205.42 55.43 C 206.89 59.43 206.11 63.83 206.20 68.01 C 206.66 70.67 202.99 71.26 201.45 69.78 C 200.29 65.98 201.65 61.84 200.66 58.01 C 199.40 55.33 195.42 55.92 194.15 58.31 C 193.63 62.09 194.49 65.98 193.64 69.72 C 192.39 70.94 189.10 71.03 188.91 68.86 C 188.52 63.39 188.84 57.89 188.77 52.41 Z" />
<path fill="#ffffff" opacity="1.00" d=" M 225.38 52.45 C 226.91 51.95 229.09 52.03 229.41 54.02 C 229.54 58.95 229.66 63.91 229.35 68.83 C 229.24 71.19 224.58 71.21 224.39 68.84 C 224.06 64.90 224.33 60.93 224.23 56.97 C 224.31 55.43 223.93 53.51 225.38 52.45 Z" />
<path fill="#ffffff" opacity="1.00" d=" M 255.51 57.71 C 254.77 53.91 258.91 52.20 262.02 52.15 C 265.56 51.78 270.23 52.54 271.48 56.44 C 272.54 60.96 271.76 65.69 272.01 70.29 C 269.83 70.92 267.89 70.15 266.60 68.35 C 264.10 70.65 260.28 71.49 257.20 69.87 C 254.20 68.32 253.89 63.55 256.61 61.58 C 259.67 59.47 263.60 59.68 267.14 59.31 C 266.38 54.53 260.05 54.99 258.29 58.90 C 257.36 58.50 256.44 58.10 255.51 57.71 M 259.60 65.12 C 259.79 67.64 263.06 68.08 264.84 66.86 C 266.62 66.05 266.60 63.86 267.01 62.24 C 264.44 62.41 260.56 61.98 259.60 65.12 Z" />
</g>
</svg>
