<?xml version="1.0" encoding="UTF-8" ?>
<!DOCTYPE svg PUBLIC "-//W3C//DTD SVG 1.1//EN" "http://www.w3.org/Graphics/SVG/1.1/DTD/svg11.dtd">
<svg width="767pt" height="432pt" viewBox="0 0 767 432" version="1.1" xmlns="http://www.w3.org/2000/svg">
<g id="#3dad97ff">
<path fill="#3dad97" opacity="1.00" d=" M 0.00 0.00 L 0.28 0.00 C 0.21 0.07 0.07 0.21 0.00 0.28 L 0.00 0.00 Z" />
<path fill="#3dad97" opacity="1.00" d=" M 191.08 205.96 C 196.49 204.47 202.04 203.58 207.61 202.92 C 212.39 205.94 216.73 209.52 220.47 213.77 C 223.95 217.43 228.43 219.83 232.80 222.24 C 250.71 232.01 271.69 237.96 292.11 234.22 C 299.81 232.43 307.89 229.44 313.09 223.20 C 312.64 223.15 311.75 223.07 311.30 223.02 C 312.60 221.83 313.82 220.54 314.94 219.18 C 315.00 219.61 315.12 220.46 315.19 220.89 C 318.44 218.05 320.53 214.16 321.09 209.87 C 321.46 208.33 321.77 206.78 322.08 205.23 C 331.65 208.22 339.59 216.05 342.26 225.77 C 343.99 232.25 345.04 238.89 346.69 245.39 C 356.24 285.59 363.55 326.43 365.81 367.74 C 364.69 367.65 363.58 367.55 362.48 367.45 C 358.12 365.25 353.13 367.24 348.94 368.90 C 343.27 371.71 337.42 377.63 338.93 384.48 C 339.22 385.99 339.55 387.48 339.87 388.99 C 336.55 385.28 335.75 380.24 334.27 375.67 C 332.25 369.41 330.81 362.96 328.36 356.84 C 326.61 368.83 327.16 381.01 328.23 393.03 C 328.57 395.61 328.50 398.64 330.80 400.37 C 320.94 403.19 311.25 406.51 301.41 409.36 C 296.27 410.96 290.76 410.24 285.84 408.24 C 259.93 398.15 234.09 387.81 207.60 379.29 C 209.55 357.70 207.69 335.51 200.53 314.98 C 194.86 334.91 188.36 354.65 179.88 373.58 C 178.39 373.58 176.91 373.63 175.43 373.67 C 168.61 371.59 161.51 373.50 154.70 374.63 C 148.54 376.11 141.94 377.50 137.02 381.77 C 137.49 381.85 138.41 381.99 138.87 382.06 C 137.77 382.44 136.67 382.81 135.57 383.17 C 136.23 375.56 137.13 367.96 138.38 360.42 C 145.91 314.71 160.71 270.69 173.23 226.20 C 175.46 217.02 182.40 209.50 191.08 205.96 M 213.24 255.29 C 211.77 263.16 210.79 271.13 208.88 278.91 C 206.74 289.48 203.44 299.78 201.19 310.32 C 203.62 309.95 203.68 307.10 204.39 305.25 C 208.67 288.72 213.12 272.12 214.94 255.09 C 214.52 255.14 213.67 255.24 213.24 255.29 Z" />
<path fill="#3dad97" opacity="1.00" d=" M 201.00 411.10 C 221.38 415.71 241.87 419.89 262.35 424.08 C 263.26 425.76 264.15 427.46 265.13 429.11 C 249.42 429.45 233.71 429.19 218.00 429.27 C 210.22 429.10 202.41 429.80 194.68 428.69 C 196.65 422.78 199.15 417.06 201.00 411.10 Z" />
</g>
<g id="#008c7ccc">
<path fill="#008c7c" opacity="0.80" d=" M 422.01 0.00 L 585.99 0.00 C 585.90 11.04 586.21 22.09 585.87 33.13 C 571.60 33.76 557.29 33.19 543.00 33.38 C 508.33 33.38 473.66 33.39 439.00 33.38 C 433.37 33.36 427.74 33.64 422.13 33.11 C 421.77 22.08 422.11 11.04 422.01 0.00 M 424.07 2.07 C 423.94 11.77 423.92 21.48 424.09 31.18 C 428.72 31.57 433.36 31.37 438.00 31.38 C 471.00 31.39 504.00 31.38 537.00 31.38 C 552.64 31.24 568.29 31.68 583.91 31.17 C 584.08 21.47 584.05 11.77 583.93 2.07 C 530.65 1.95 477.35 1.95 424.07 2.07 Z" />
<path fill="#008c7c" opacity="0.80" d=" M 439.43 12.39 C 442.42 11.20 446.22 13.49 445.73 16.90 C 445.81 20.39 441.36 22.46 438.62 20.44 C 435.71 18.68 436.19 13.48 439.43 12.39 Z" />
<path fill="#008c7c" opacity="0.80" d=" M 456.42 12.37 C 459.63 11.03 463.61 14.21 462.62 17.65 C 462.08 21.37 456.43 22.62 454.50 19.33 C 452.46 17.09 453.74 13.39 456.42 12.37 Z" />
<path fill="#008c7c" opacity="0.80" d=" M 473.42 12.36 C 476.33 11.17 480.03 13.69 479.67 16.88 C 479.53 19.66 476.82 21.87 474.05 21.13 C 469.74 20.81 469.32 13.43 473.42 12.36 Z" />
<path fill="#008c7c" opacity="0.80" d=" M 490.38 12.34 C 493.92 10.87 497.80 14.86 496.29 18.32 C 495.24 21.90 489.53 22.28 487.97 18.94 C 486.55 16.64 487.80 13.16 490.38 12.34 Z" />
<path fill="#008c7c" opacity="0.80" d=" M 507.38 12.34 C 511.00 10.75 515.13 15.40 512.92 18.73 C 511.54 21.96 506.48 22.08 504.91 18.99 C 503.38 16.58 504.69 13.20 507.38 12.34 Z" />
<path fill="#008c7c" opacity="0.80" d=" M 524.35 12.33 C 527.35 11.23 530.76 13.73 530.29 16.99 C 530.38 20.67 525.36 22.54 522.77 20.14 C 520.26 18.03 520.91 13.07 524.35 12.33 Z" />
<path fill="#008c7c" opacity="0.80" d=" M 439.35 60.31 C 441.11 59.85 443.54 59.67 444.69 61.40 C 447.13 64.14 445.08 69.67 441.07 68.95 C 436.31 69.36 435.04 61.78 439.35 60.31 Z" />
<path fill="#008c7c" opacity="0.80" d=" M 456.30 60.27 C 459.51 58.89 463.09 61.39 462.71 64.89 C 462.66 68.91 456.80 70.47 454.53 67.33 C 452.51 65.13 453.62 61.33 456.30 60.27 Z" />
<path fill="#008c7c" opacity="0.80" d=" M 473.29 60.20 C 476.35 59.11 480.12 61.45 479.67 64.87 C 479.59 68.53 474.61 70.27 472.02 67.95 C 469.59 65.89 470.27 61.36 473.29 60.20 Z" />
<path fill="#008c7c" opacity="0.80" d=" M 490.27 60.25 C 493.34 58.96 497.03 61.60 496.40 64.98 C 496.42 68.35 492.25 69.97 489.58 68.40 C 486.29 66.81 486.73 61.24 490.27 60.25 Z" />
<path fill="#008c7c" opacity="0.80" d=" M 407.38 110.52 C 415.21 109.06 423.66 111.09 429.85 116.15 C 436.69 121.57 440.60 130.35 440.03 139.06 C 439.86 151.15 430.46 162.20 418.69 164.65 C 408.83 166.97 397.82 163.46 391.40 155.56 C 385.13 148.49 383.43 138.12 386.20 129.20 C 389.12 119.71 397.61 112.27 407.38 110.52 M 407.32 115.37 C 396.44 117.76 388.32 128.89 389.72 140.00 C 390.64 151.66 401.74 161.39 413.46 160.51 C 426.32 160.44 437.15 147.70 435.26 134.99 C 434.01 121.96 420.06 111.93 407.32 115.37 Z" />
<path fill="#008c7c" opacity="0.80" d=" M 0.00 296.41 C 2.14 287.69 9.77 280.30 19.03 280.15 C 30.05 279.15 40.33 288.99 39.96 300.01 C 40.47 311.47 29.31 321.47 17.98 319.92 C 9.30 319.40 2.77 312.33 0.00 304.53 L 0.00 296.41 M 11.84 300.15 C 12.06 304.38 15.56 308.35 20.00 308.03 C 24.48 308.38 28.00 304.43 28.16 300.14 C 22.72 299.88 17.27 299.87 11.84 300.15 Z" />
</g>
<g id="#3e3b59ff">
<path fill="#3e3b59" opacity="1.00" d=" M 271.22 24.68 C 277.80 28.33 279.34 36.44 282.23 42.79 C 285.65 39.68 288.79 36.10 292.99 34.00 C 299.69 30.44 307.50 29.56 314.98 30.18 C 316.10 30.18 316.87 30.72 317.29 31.80 C 306.96 31.15 295.38 32.23 287.74 40.05 C 294.36 38.05 301.01 35.49 308.05 36.02 C 326.11 36.18 342.74 50.21 346.12 67.91 C 348.26 77.19 345.61 86.54 343.53 95.57 C 341.52 103.67 337.95 111.35 333.27 118.25 C 333.32 116.95 333.37 115.66 333.41 114.37 C 336.73 109.35 339.44 103.91 341.05 98.09 C 338.43 100.77 335.94 103.58 333.29 106.23 C 332.68 96.90 331.92 87.37 328.62 78.54 C 322.90 77.55 317.46 75.55 312.23 73.06 C 306.98 82.17 299.94 92.33 288.78 94.11 C 292.04 91.09 296.43 89.74 299.75 86.81 C 301.99 84.95 303.72 82.59 305.36 80.21 C 299.98 84.03 294.76 88.26 288.46 90.50 C 278.31 94.60 267.16 94.38 256.46 93.29 C 256.85 99.65 256.77 106.21 254.17 112.15 C 250.74 121.55 243.60 128.73 237.05 136.01 C 241.95 141.59 248.26 145.65 253.34 151.04 C 250.02 163.74 245.22 176.01 241.59 188.63 C 240.23 194.06 236.53 199.55 230.59 200.39 C 222.95 201.43 215.21 201.53 207.61 202.92 C 202.04 203.58 196.49 204.47 191.08 205.96 C 190.70 192.79 194.07 179.43 201.50 168.47 C 204.45 163.77 208.62 160.05 212.17 155.83 C 210.90 149.28 209.04 142.71 209.78 135.97 C 209.89 130.84 212.02 126.09 212.79 121.08 C 211.46 116.74 208.58 113.04 207.26 108.68 C 200.82 91.12 204.99 70.33 217.46 56.45 C 227.28 45.22 242.10 38.56 257.03 38.75 C 261.05 38.88 265.04 39.55 269.06 39.80 C 259.59 36.26 249.35 36.29 239.44 37.30 C 240.39 36.68 241.23 35.80 242.37 35.52 C 255.36 33.41 268.55 36.84 280.11 42.75 C 278.63 36.06 274.53 30.52 271.22 24.68 Z" />
<path fill="#3e3b59" opacity="1.00" d=" M 289.63 105.50 C 292.81 103.89 296.89 103.25 300.08 105.17 C 299.86 105.44 299.43 105.97 299.21 106.23 C 295.38 106.59 291.59 107.20 287.86 108.17 C 287.95 106.91 288.54 106.02 289.63 105.50 Z" />
<path fill="#3e3b59" opacity="1.00" d=" M 315.12 104.28 C 319.09 104.13 325.44 102.89 327.01 107.81 C 323.14 107.08 319.24 106.32 315.27 106.56 C 315.24 105.99 315.16 104.85 315.12 104.28 Z" />
<path fill="#3e3b59" opacity="1.00" d=" M 293.04 116.67 C 294.33 116.76 295.62 116.86 296.92 116.96 C 297.23 119.32 298.25 123.65 294.92 124.19 C 290.79 124.67 291.93 118.99 293.04 116.67 Z" />
<path fill="#3e3b59" opacity="1.00" d=" M 317.25 117.01 C 318.79 116.82 320.33 116.75 321.88 116.95 C 322.07 118.88 322.49 120.88 321.87 122.78 C 321.15 124.79 317.91 124.71 317.08 122.83 C 316.82 120.89 317.11 118.94 317.25 117.01 Z" />
<path fill="#3e3b59" opacity="1.00" d=" M 290.16 174.02 C 297.95 175.85 307.42 177.62 313.70 171.22 C 315.19 176.63 317.75 181.70 318.78 187.24 C 319.97 192.86 320.02 198.68 319.06 204.34 C 312.61 203.19 305.95 203.17 299.63 201.38 C 296.04 200.28 294.41 196.53 293.79 193.14 C 292.55 186.77 291.13 180.44 290.16 174.02 Z" />
</g>
<g id="#008b7bcb">
<path fill="#008b7b" opacity="0.80" d=" M 422.08 47.89 C 440.04 47.41 458.03 47.83 476.00 47.69 C 508.33 47.69 540.67 47.69 573.00 47.69 C 577.31 47.68 581.62 47.55 585.92 47.90 C 586.08 58.96 586.07 70.04 585.92 81.10 C 569.96 81.60 553.97 81.16 538.00 81.31 C 504.00 81.31 470.00 81.31 436.00 81.31 C 431.36 81.30 426.71 81.48 422.08 81.10 C 421.93 70.04 421.93 58.96 422.08 47.89 M 424.08 49.89 C 423.94 59.63 423.94 69.37 424.09 79.11 C 425.72 79.21 427.35 79.31 429.00 79.34 C 464.33 79.27 499.66 79.32 535.00 79.31 C 551.30 79.16 567.62 79.59 583.91 79.11 C 584.06 69.37 584.06 59.63 583.91 49.89 C 579.28 49.51 574.64 49.70 570.00 49.70 C 538.67 49.69 507.33 49.69 476.00 49.69 C 458.69 49.84 441.38 49.41 424.08 49.89 Z" />
<path fill="#008b7b" opacity="0.80" d=" M 421.50 128.56 C 422.70 127.79 424.03 128.68 425.20 129.06 C 425.49 131.85 423.09 133.59 421.37 135.37 C 418.13 138.45 415.03 141.68 411.89 144.85 C 410.76 145.82 409.67 147.24 408.05 147.22 C 404.95 145.31 402.38 142.57 400.21 139.67 C 399.00 138.05 400.83 135.66 402.72 136.39 C 404.70 137.74 406.38 139.48 408.15 141.09 C 413.24 137.65 416.67 132.31 421.50 128.56 Z" />
</g>
<g id="#ffc7b8ff">
<path fill="#ffc7b8" opacity="1.00" d=" M 312.23 73.06 C 317.46 75.55 322.90 77.55 328.62 78.54 C 331.92 87.37 332.68 96.90 333.29 106.23 C 333.33 108.94 333.36 111.65 333.41 114.37 C 333.37 115.66 333.32 116.95 333.27 118.25 C 331.64 137.07 327.29 157.23 313.70 171.22 C 307.42 177.62 297.95 175.85 290.16 174.02 C 291.13 180.44 292.55 186.77 293.79 193.14 C 294.41 196.53 296.04 200.28 299.63 201.38 C 305.95 203.17 312.61 203.19 319.06 204.34 C 320.07 204.60 321.08 204.90 322.08 205.23 C 321.77 206.78 321.46 208.33 321.09 209.87 C 318.60 212.66 316.48 215.77 314.94 219.18 C 313.82 220.54 312.60 221.83 311.30 223.02 C 304.51 228.23 296.57 232.04 287.99 232.95 C 265.82 235.50 243.77 227.43 225.41 215.49 C 223.92 214.52 222.18 214.11 220.47 213.77 C 216.73 209.52 212.39 205.94 207.61 202.92 C 215.21 201.53 222.95 201.43 230.59 200.39 C 236.53 199.55 240.23 194.06 241.59 188.63 C 245.22 176.01 250.02 163.74 253.34 151.04 C 248.26 145.65 241.95 141.59 237.05 136.01 C 243.60 128.73 250.74 121.55 254.17 112.15 C 256.77 106.21 256.85 99.65 256.46 93.29 C 267.16 94.38 278.31 94.60 288.46 90.50 C 294.76 88.26 299.98 84.03 305.36 80.21 C 303.72 82.59 301.99 84.95 299.75 86.81 C 296.43 89.74 292.04 91.09 288.78 94.11 C 299.94 92.33 306.98 82.17 312.23 73.06 M 289.63 105.50 C 288.54 106.02 287.95 106.91 287.86 108.17 C 291.59 107.20 295.38 106.59 299.21 106.23 C 299.43 105.97 299.86 105.44 300.08 105.17 C 296.89 103.25 292.81 103.89 289.63 105.50 M 315.12 104.28 C 315.16 104.85 315.24 105.99 315.27 106.56 C 319.24 106.32 323.14 107.08 327.01 107.81 C 325.44 102.89 319.09 104.13 315.12 104.28 M 293.04 116.67 C 291.93 118.99 290.79 124.67 294.92 124.19 C 298.25 123.65 297.23 119.32 296.92 116.96 C 295.62 116.86 294.33 116.76 293.04 116.67 M 317.25 117.01 C 317.11 118.94 316.82 120.89 317.08 122.83 C 317.91 124.71 321.15 124.79 321.87 122.78 C 322.49 120.88 322.07 118.88 321.88 116.95 C 320.33 116.75 318.79 116.82 317.25 117.01 M 308.91 125.82 C 309.25 129.29 310.58 132.56 310.98 136.00 C 310.86 138.12 309.73 140.01 309.05 141.98 C 311.09 140.65 313.76 138.96 312.96 136.08 C 312.17 132.59 312.20 127.97 308.91 125.82 M 296.01 147.24 C 296.93 150.49 298.32 153.75 300.87 156.07 C 303.46 158.44 307.43 158.56 310.65 157.62 C 314.37 155.75 316.34 151.81 317.86 148.13 C 310.57 147.97 303.30 147.35 296.01 147.24 M 258.85 154.77 C 259.64 156.06 260.51 157.35 261.77 158.24 C 267.93 162.90 274.60 166.83 281.29 170.69 C 283.37 171.94 285.68 172.75 288.10 173.03 C 287.09 171.60 285.64 170.61 284.07 169.89 C 278.39 167.12 273.02 163.74 267.82 160.16 C 264.93 158.21 262.36 155.57 258.85 154.77 Z" />
<path fill="#ffc7b8" opacity="1.00" d=" M 345.98 372.99 C 350.60 369.13 356.81 368.63 362.48 367.45 C 363.58 367.55 364.69 367.65 365.81 367.74 C 383.33 368.95 400.38 373.66 416.85 379.56 C 413.94 389.76 408.64 399.10 404.92 409.02 C 385.09 403.85 365.45 397.99 345.88 391.91 C 343.74 391.24 341.71 390.26 339.87 388.99 C 339.55 387.48 339.22 385.99 338.93 384.48 C 340.70 380.37 342.23 375.78 345.98 372.99 Z" />
<path fill="#ffc7b8" opacity="1.00" d=" M 152.17 377.15 C 159.77 375.03 167.72 375.14 175.43 373.67 C 176.91 373.63 178.39 373.58 179.88 373.58 C 189.36 373.98 198.52 376.75 207.60 379.29 C 234.09 387.81 259.93 398.15 285.84 408.24 C 290.76 410.24 296.27 410.96 301.41 409.36 C 311.25 406.51 320.94 403.19 330.80 400.37 C 334.62 399.06 339.31 398.40 342.62 401.30 C 347.70 405.52 352.57 410.01 357.24 414.69 C 348.84 415.28 340.41 414.91 332.00 415.00 C 312.65 414.98 293.31 415.05 273.96 414.95 C 270.96 415.06 267.51 414.90 265.17 417.12 C 263.18 418.86 263.04 421.70 262.35 424.08 C 241.87 419.89 221.38 415.71 201.00 411.10 C 181.48 406.52 161.92 401.98 142.74 396.13 C 137.33 394.50 134.36 388.56 135.57 383.17 C 136.67 382.81 137.77 382.44 138.87 382.06 C 143.30 380.41 147.50 378.10 152.17 377.15 Z" />
</g>
<g id="#7dd643ff">
<path fill="#7dd643" opacity="1.00" d=" M 86.32 118.03 C 86.11 113.48 90.56 109.88 94.95 110.28 C 117.98 110.31 141.01 110.30 164.04 110.28 C 167.34 110.11 170.74 112.04 171.90 115.20 C 172.68 118.06 172.39 121.07 172.44 124.00 C 172.29 132.34 172.57 140.69 172.35 149.02 C 172.44 152.25 170.10 155.38 166.95 156.11 C 163.80 156.66 160.59 156.18 157.43 156.52 C 152.92 160.22 150.54 165.90 146.01 169.63 C 141.57 165.99 139.30 160.36 134.87 156.78 C 121.29 156.27 107.65 156.81 94.05 156.57 C 90.04 156.56 86.25 153.06 86.33 148.97 C 86.25 138.66 86.28 128.34 86.32 118.03 M 88.70 117.99 C 88.36 125.32 88.73 132.66 88.58 140.00 C 88.66 143.57 88.19 147.25 89.12 150.74 C 90.20 153.47 93.30 154.35 95.98 154.28 C 109.53 154.46 123.08 154.06 136.63 154.43 C 139.79 157.91 142.12 162.08 145.43 165.43 C 145.72 165.47 146.31 165.55 146.60 165.59 C 149.81 162.10 152.28 158.00 155.44 154.47 C 158.91 154.17 162.43 154.52 165.88 153.93 C 168.56 153.36 170.22 150.66 170.20 148.03 C 170.50 139.69 170.16 131.34 170.34 123.00 C 170.18 120.13 170.77 116.69 168.57 114.43 C 166.67 112.31 163.57 112.66 161.00 112.55 C 139.00 112.69 116.99 112.47 94.99 112.65 C 91.88 112.44 88.65 114.68 88.70 117.99 Z" />
<path fill="#7dd643" opacity="1.00" d=" M 103.22 141.38 C 115.36 141.51 127.51 141.23 139.64 141.51 C 139.89 141.90 140.40 142.67 140.65 143.06 C 138.54 143.94 136.23 143.73 134.01 143.75 C 123.72 143.60 113.43 143.83 103.14 143.65 C 103.16 143.09 103.20 141.95 103.22 141.38 Z" />
<path fill="#7dd643" opacity="1.00" d=" M 458.80 204.98 C 458.78 200.11 463.32 196.23 468.07 196.43 C 493.39 196.37 518.72 196.43 544.04 196.40 C 548.70 196.15 553.40 200.13 553.25 204.94 C 553.42 214.96 553.19 224.98 553.34 235.00 C 553.27 238.12 553.59 241.77 551.18 244.18 C 549.46 246.30 546.71 247.12 544.06 247.01 C 530.35 247.01 516.65 247.00 502.94 246.98 C 501.59 247.12 499.85 246.77 498.92 248.03 C 495.05 252.39 492.11 257.53 487.90 261.60 C 483.05 257.50 480.12 251.70 475.81 247.11 C 471.03 246.47 465.18 248.42 461.35 244.63 C 458.64 242.21 458.65 238.34 458.67 234.99 C 458.83 224.99 458.51 214.98 458.80 204.98 M 462.89 200.89 C 460.81 203.02 461.06 206.23 460.96 208.98 C 461.07 218.34 460.90 227.71 461.03 237.07 C 460.95 240.08 462.36 243.65 465.59 244.40 C 469.31 245.08 473.13 244.36 476.87 244.95 C 481.19 248.66 483.57 254.15 487.84 257.96 C 491.63 253.92 494.44 249.07 498.30 245.11 C 500.14 244.58 502.09 244.70 504.00 244.66 C 516.68 244.78 529.36 244.62 542.04 244.76 C 544.42 244.73 547.22 244.95 548.96 242.96 C 551.53 240.73 550.89 237.02 551.04 234.00 C 550.86 224.33 551.20 214.65 550.90 204.99 C 550.84 201.48 547.52 198.66 544.06 199.01 C 519.36 198.96 494.66 199.06 469.96 198.96 C 467.52 199.01 464.68 198.92 462.89 200.89 Z" />
<path fill="#7dd643" opacity="1.00" d=" M 473.22 215.34 C 481.14 215.18 489.07 215.38 496.99 215.28 C 500.30 215.32 503.72 214.90 506.92 215.99 C 506.66 216.47 506.12 217.41 505.86 217.89 C 494.96 218.04 484.04 218.20 473.15 217.79 C 473.16 217.17 473.20 215.95 473.22 215.34 Z" />
<path fill="#7dd643" opacity="1.00" d=" M 516.08 215.30 C 523.64 215.27 531.21 215.26 538.78 215.31 C 538.82 215.94 538.88 217.20 538.91 217.82 C 531.22 218.15 523.52 218.07 515.83 217.88 C 515.89 217.24 516.01 215.95 516.08 215.30 Z" />
</g>
<g id="#7cd442fd">
<path fill="#7cd442" opacity="1.00" d=" M 102.97 124.88 C 111.99 124.67 121.05 124.37 130.05 125.07 C 129.74 125.52 129.11 126.43 128.80 126.89 C 120.22 127.13 111.61 127.07 103.02 126.88 C 103.01 126.38 102.98 125.38 102.97 124.88 Z" />
<path fill="#7cd442" opacity="1.00" d=" M 472.98 225.96 C 477.66 225.52 482.37 225.52 487.06 225.95 C 487.01 226.48 486.91 227.55 486.86 228.08 C 482.33 228.66 477.69 228.68 473.17 228.05 C 473.12 227.53 473.02 226.48 472.98 225.96 Z" />
</g>
<g id="#7bd242fb">
<path fill="#7bd242" opacity="1.00" d=" M 136.98 124.90 C 143.31 124.56 149.67 124.53 156.01 124.93 C 155.94 125.39 155.82 126.31 155.76 126.77 C 149.59 127.19 143.36 127.17 137.19 126.78 C 137.14 126.31 137.03 125.37 136.98 124.90 Z" />
</g>
<g id="#ffa68fff">
<path fill="#ffa68f" opacity="1.00" d=" M 308.91 125.82 C 312.20 127.97 312.17 132.59 312.96 136.08 C 313.76 138.96 311.09 140.65 309.05 141.98 C 309.73 140.01 310.86 138.12 310.98 136.00 C 310.58 132.56 309.25 129.29 308.91 125.82 Z" />
<path fill="#ffa68f" opacity="1.00" d=" M 258.85 154.77 C 262.36 155.57 264.93 158.21 267.82 160.16 C 273.02 163.74 278.39 167.12 284.07 169.89 C 285.64 170.61 287.09 171.60 288.10 173.03 C 285.68 172.75 283.37 171.94 281.29 170.69 C 274.60 166.83 267.93 162.90 261.77 158.24 C 260.51 157.35 259.64 156.06 258.85 154.77 Z" />
</g>
<g id="#7cd442fc">
<path fill="#7cd442" opacity="1.00" d=" M 103.01 133.13 C 106.66 132.88 110.32 132.88 113.97 133.13 C 113.98 133.62 113.99 134.62 113.99 135.11 C 110.32 135.42 106.63 135.42 102.97 135.12 C 102.98 134.62 103.00 133.63 103.01 133.13 Z" />
</g>
<g id="#7bd342fc">
<path fill="#7bd342" opacity="1.00" d=" M 122.16 133.07 C 133.41 132.99 144.68 132.81 155.92 133.18 C 155.88 133.64 155.79 134.54 155.75 134.99 C 150.86 135.61 145.91 135.21 141.00 135.29 C 134.35 135.19 127.68 135.61 121.05 134.99 C 121.33 134.51 121.88 133.55 122.16 133.07 Z" />
<path fill="#7bd342" opacity="1.00" d=" M 496.12 226.07 C 504.43 225.39 512.81 225.61 521.14 225.92 C 521.09 226.47 521.00 227.55 520.95 228.09 C 516.33 228.75 511.65 228.30 507.00 228.42 C 503.46 228.37 499.85 228.74 496.37 227.96 C 496.31 227.49 496.18 226.54 496.12 226.07 Z" />
</g>
<g id="#ffffffff">
<path fill="#ffffff" opacity="1.00" d=" M 296.01 147.24 C 303.30 147.35 310.57 147.97 317.86 148.13 C 316.34 151.81 314.37 155.75 310.65 157.62 C 307.43 158.56 303.46 158.44 300.87 156.07 C 298.32 153.75 296.93 150.49 296.01 147.24 Z" />
<path fill="#ffffff" opacity="1.00" d=" M 639.60 290.88 C 642.36 291.56 644.26 293.86 646.25 295.73 C 590.83 295.62 535.42 295.76 480.00 295.66 C 474.62 295.74 468.78 295.06 463.94 297.91 C 460.74 299.67 458.48 302.72 457.04 306.01 C 441.87 341.50 426.64 376.96 411.45 412.44 C 409.54 416.91 407.46 421.32 405.86 425.92 C 405.47 426.93 405.08 427.94 404.69 428.95 C 401.14 429.34 397.56 429.40 394.00 429.31 C 351.66 429.15 309.31 429.47 266.97 429.15 C 265.45 426.50 263.13 423.28 265.10 420.22 C 266.60 416.76 270.75 416.62 273.98 416.64 C 311.66 416.80 349.34 416.58 387.02 416.76 C 389.57 416.75 392.08 416.27 394.58 415.77 C 397.02 415.77 399.47 415.78 401.92 415.82 C 401.69 416.99 401.49 418.16 401.34 419.34 C 402.60 417.86 403.72 416.26 404.45 414.44 C 419.54 378.92 434.73 343.42 449.93 307.94 C 452.12 303.09 453.64 297.37 458.30 294.23 C 462.85 291.00 468.72 291.62 474.00 291.58 C 526.67 291.69 579.35 291.53 632.02 291.66 C 634.56 291.63 637.08 291.24 639.60 290.88 M 392.31 419.18 C 389.23 420.45 389.24 425.54 392.29 426.87 C 395.45 429.13 399.85 425.10 398.41 421.68 C 397.70 419.10 394.62 418.06 392.31 419.18 M 279.22 422.93 C 282.98 425.13 287.76 423.71 291.94 423.82 C 291.86 423.46 291.69 422.73 291.60 422.37 C 287.49 422.25 283.23 421.77 279.22 422.93 M 303.22 422.94 C 307.00 425.12 311.76 423.72 315.94 423.82 C 315.86 423.46 315.69 422.74 315.61 422.37 C 311.49 422.26 307.23 421.75 303.22 422.94 Z" />
<path fill="#ffffff" opacity="1.00" d=" M 392.12 422.25 C 392.83 420.59 394.61 421.08 396.04 421.03 C 396.16 422.32 396.17 423.62 396.08 424.93 C 395.31 424.99 393.76 425.11 392.99 425.16 C 392.39 424.26 392.10 423.29 392.12 422.25 Z" />
</g>
<g id="#377a6bff">
<path fill="#377a6b" opacity="1.00" d=" M 314.94 219.18 C 316.48 215.77 318.60 212.66 321.09 209.87 C 320.53 214.16 318.44 218.05 315.19 220.89 C 315.12 220.46 315.00 219.61 314.94 219.18 Z" />
</g>
<g id="#3c7b6dff">
<path fill="#3c7b6d" opacity="1.00" d=" M 220.47 213.77 C 222.18 214.11 223.92 214.52 225.41 215.49 C 243.77 227.43 265.82 235.50 287.99 232.95 C 296.57 232.04 304.51 228.23 311.30 223.02 C 311.75 223.07 312.64 223.15 313.09 223.20 C 307.89 229.44 299.81 232.43 292.11 234.22 C 271.69 237.96 250.71 232.01 232.80 222.24 C 228.43 219.83 223.95 217.43 220.47 213.77 Z" />
</g>
<g id="#2a796aff">
<path fill="#2a796a" opacity="1.00" d=" M 213.24 255.29 C 213.67 255.24 214.52 255.14 214.94 255.09 C 213.12 272.12 208.67 288.72 204.39 305.25 C 203.68 307.10 203.62 309.95 201.19 310.32 C 203.44 299.78 206.74 289.48 208.88 278.91 C 210.79 271.13 211.77 263.16 213.24 255.29 Z" />
</g>
<g id="#5b5b5bff">
<path fill="#5b5b5b" opacity="1.00" d=" M 451.20 301.12 C 453.64 294.72 459.94 289.86 466.92 290.01 C 519.28 289.98 571.64 290.01 624.00 290.00 C 629.19 290.06 634.52 289.44 639.60 290.88 C 637.08 291.24 634.56 291.63 632.02 291.66 C 579.35 291.53 526.67 291.69 474.00 291.58 C 468.72 291.62 462.85 291.00 458.30 294.23 C 453.64 297.37 452.12 303.09 449.93 307.94 C 434.73 343.42 419.54 378.92 404.45 414.44 C 403.72 416.26 402.60 417.86 401.34 419.34 C 401.49 418.16 401.69 416.99 401.92 415.82 C 402.88 413.53 403.98 411.31 404.92 409.02 C 408.64 399.10 413.94 389.76 416.85 379.56 C 419.18 376.36 420.73 372.73 422.14 369.06 C 431.81 346.41 441.56 323.78 451.20 301.12 Z" />
<path fill="#5b5b5b" opacity="1.00" d=" M 463.94 297.91 C 468.78 295.06 474.62 295.74 480.00 295.66 C 535.42 295.76 590.83 295.62 646.25 295.73 C 648.07 297.75 650.38 300.00 650.10 302.97 C 649.44 307.13 647.23 310.81 645.67 314.68 C 629.38 352.71 613.06 390.72 596.79 428.76 C 577.20 429.38 557.59 428.87 538.00 429.03 C 505.33 429.04 472.67 429.03 440.00 429.03 C 428.65 428.84 417.28 429.41 405.95 428.78 C 405.93 428.07 405.88 426.64 405.86 425.92 C 407.46 421.32 409.54 416.91 411.45 412.44 C 426.64 376.96 441.87 341.50 457.04 306.01 C 458.48 302.72 460.74 299.67 463.94 297.91 Z" />
<path fill="#5b5b5b" opacity="1.00" d=" M 357.24 414.69 C 369.66 415.79 382.22 413.92 394.58 415.77 C 392.08 416.27 389.57 416.75 387.02 416.76 C 349.34 416.58 311.66 416.80 273.98 416.64 C 270.75 416.62 266.60 416.76 265.10 420.22 C 263.13 423.28 265.45 426.50 266.97 429.15 C 266.51 429.14 265.59 429.12 265.13 429.11 C 264.15 427.46 263.26 425.76 262.35 424.08 C 263.04 421.70 263.18 418.86 265.17 417.12 C 267.51 414.90 270.96 415.06 273.96 414.95 C 293.31 415.05 312.65 414.98 332.00 415.00 C 340.41 414.91 348.84 415.28 357.24 414.69 Z" />
<path fill="#5b5b5b" opacity="1.00" d=" M 392.31 419.18 C 394.62 418.06 397.70 419.10 398.41 421.68 C 399.85 425.10 395.45 429.13 392.29 426.87 C 389.24 425.54 389.23 420.45 392.31 419.18 M 392.12 422.25 C 392.10 423.29 392.39 424.26 392.99 425.16 C 393.76 425.11 395.31 424.99 396.08 424.93 C 396.17 423.62 396.16 422.32 396.04 421.03 C 394.61 421.08 392.83 420.59 392.12 422.25 Z" />
<path fill="#5b5b5b" opacity="1.00" d=" M 279.22 422.93 C 283.23 421.77 287.49 422.25 291.60 422.37 C 291.69 422.73 291.86 423.46 291.94 423.82 C 287.76 423.71 282.98 425.13 279.22 422.93 Z" />
<path fill="#5b5b5b" opacity="1.00" d=" M 303.22 422.94 C 307.23 421.75 311.49 422.26 315.61 422.37 C 315.69 422.74 315.86 423.46 315.94 423.82 C 311.76 423.72 307.00 425.12 303.22 422.94 Z" />
</g>
<g id="#f7fafcff">
<path fill="#f7fafc" opacity="1.00" d=" M 11.84 300.15 C 17.27 299.87 22.72 299.88 28.16 300.14 C 28.00 304.43 24.48 308.38 20.00 308.03 C 15.56 308.35 12.06 304.38 11.84 300.15 Z" />
</g>
<g id="#67c5dcfd">
<path fill="#67c5dc" opacity="1.00" d=" M 739.36 310.30 C 746.22 307.29 755.07 312.32 755.30 319.96 C 756.20 326.40 750.50 332.74 744.00 332.48 C 738.18 332.77 732.51 327.94 732.44 322.00 C 731.84 317.10 734.73 312.06 739.36 310.30 M 742.46 311.48 C 737.97 312.24 734.10 316.35 734.24 321.01 C 734.15 326.45 739.43 331.07 744.78 330.59 C 749.40 329.96 753.48 325.79 753.32 321.00 C 753.56 315.40 747.91 310.59 742.46 311.48 Z" />
<path fill="#67c5dc" opacity="1.00" d=" M 684.41 313.42 C 690.24 310.58 697.98 314.56 698.81 321.03 C 699.99 326.92 694.98 332.98 688.98 332.94 C 683.54 333.29 678.50 328.43 678.55 323.00 C 678.31 318.99 680.73 315.02 684.41 313.42 M 685.33 315.31 C 679.80 317.43 678.92 325.88 683.80 329.21 C 688.40 333.16 696.21 329.73 696.85 323.83 C 698.00 317.74 690.81 312.47 685.33 315.31 Z" />
<path fill="#67c5dc" opacity="1.00" d=" M 714.29 324.23 C 719.99 322.01 727.08 326.00 727.81 332.15 C 729.03 338.05 724.06 344.19 717.99 344.03 C 711.70 344.51 706.35 338.10 707.72 331.98 C 708.21 328.41 710.96 325.45 714.29 324.23 M 714.38 326.41 C 709.48 328.45 707.98 335.45 711.68 339.30 C 715.46 344.01 723.82 342.24 725.46 336.44 C 728.11 330.12 720.42 323.24 714.38 326.41 Z" />
<path fill="#67c5dc" opacity="1.00" d=" M 674.56 342.57 C 681.25 335.93 692.67 335.13 700.24 340.74 C 703.78 343.04 705.64 346.93 707.88 350.35 C 712.89 348.06 718.40 347.97 723.77 348.70 C 726.27 345.60 728.70 342.28 732.18 340.20 C 739.24 335.98 748.67 335.87 755.66 340.34 C 762.41 344.38 766.29 352.23 766.25 360.01 C 766.34 372.35 766.28 384.69 766.28 397.04 C 766.03 398.56 766.74 401.33 764.31 400.90 C 764.16 386.93 764.46 372.95 764.20 358.98 C 764.08 351.74 759.83 344.84 753.41 341.49 C 744.16 336.00 730.78 339.98 726.11 349.68 C 731.65 353.02 736.71 358.21 737.27 364.99 C 737.70 372.98 737.24 381.00 737.46 389.00 C 737.36 392.19 737.94 395.99 735.42 398.45 C 731.48 402.82 722.93 400.91 721.82 394.94 C 721.20 388.32 721.75 381.64 721.58 375.00 C 721.81 366.99 720.78 358.85 722.79 350.99 C 718.09 349.35 712.87 350.36 708.53 352.55 C 708.14 368.35 708.72 384.18 708.29 399.97 C 708.24 404.41 701.84 405.92 699.13 402.86 C 697.61 401.32 697.78 399.01 697.69 397.02 C 697.68 389.01 697.75 381.00 697.68 373.00 C 697.66 368.74 697.58 364.32 699.29 360.33 C 700.59 356.91 703.34 354.40 705.73 351.75 C 703.46 344.23 695.89 338.68 688.00 339.03 C 679.02 339.11 670.74 346.93 670.61 356.00 C 670.48 366.33 670.66 376.66 670.59 386.98 C 670.82 388.31 669.99 389.31 669.01 390.08 C 668.00 379.76 668.88 369.36 668.54 359.00 C 668.16 352.99 670.08 346.74 674.56 342.57 M 725.01 351.81 C 723.81 354.70 723.30 357.83 723.39 360.96 C 723.47 371.28 723.38 381.61 723.42 391.93 C 723.20 395.00 725.19 398.20 728.36 398.71 C 731.82 399.64 735.71 396.66 735.38 393.00 C 735.52 384.67 735.36 376.34 735.44 368.01 C 735.72 361.11 731.26 354.54 725.01 351.81 M 702.14 359.25 C 699.78 363.06 699.60 367.66 699.68 372.01 C 699.76 380.35 699.67 388.69 699.70 397.03 C 699.72 398.97 699.74 401.79 702.14 402.31 C 704.77 403.12 706.96 400.42 706.59 397.94 C 706.59 383.63 706.55 369.32 706.61 355.02 C 704.32 355.26 703.24 357.54 702.14 359.25 Z" />
</g>
<g id="#0077c8ff">
<path fill="#0077c8" opacity="1.00" d=" M 5.32 339.19 C 7.99 337.76 12.21 339.67 11.77 343.01 C 12.14 345.66 9.59 347.93 6.99 347.43 C 2.58 347.75 1.58 340.80 5.32 339.19 Z" />
<path fill="#0077c8" opacity="1.00" d=" M 27.44 364.40 C 31.05 362.77 35.15 366.71 33.36 370.34 C 32.24 374.17 25.72 373.75 25.04 369.84 C 24.39 367.75 25.34 365.23 27.44 364.40 Z" />
<path fill="#0077c8" opacity="1.00" d=" M 27.32 389.28 C 30.90 387.77 35.20 391.07 34.14 394.96 C 33.71 399.14 27.33 400.18 25.20 396.79 C 23.20 394.38 24.49 390.39 27.32 389.28 M 28.35 390.28 C 26.63 391.08 25.16 392.87 25.77 394.87 C 26.35 398.37 32.46 398.29 32.78 394.66 C 33.62 392.07 30.73 389.94 28.35 390.28 Z" />
<path fill="#0077c8" opacity="1.00" d=" M 4.43 390.32 C 7.34 388.47 12.29 390.00 11.77 393.99 C 12.23 397.70 7.24 399.61 4.60 397.46 C 2.39 395.73 2.67 392.26 4.43 390.32 Z" />
</g>
<g id="#76bd1dff">
<path fill="#76bd1d" opacity="1.00" d=" M 27.28 339.08 C 30.73 337.37 34.72 340.95 33.60 344.55 C 32.60 348.76 25.18 348.32 24.88 343.95 C 24.51 342.00 25.56 340.00 27.28 339.08 Z" />
</g>
<g id="#70b31bf2">
<path fill="#70b31b" opacity="0.95" d=" M 7.19 363.88 C 8.34 364.64 8.22 366.20 8.62 367.38 C 9.79 367.77 11.34 367.66 12.11 368.81 C 10.91 369.08 9.71 369.34 8.51 369.59 C 8.28 371.05 8.04 372.51 7.72 373.97 C 6.70 372.73 6.77 371.05 6.45 369.56 C 4.93 369.27 3.33 369.16 2.00 368.30 C 3.46 367.97 4.94 367.71 6.42 367.49 C 6.66 366.28 6.92 365.08 7.19 363.88 Z" />
</g>
<g id="#337869ff">
<path fill="#337869" opacity="1.00" d=" M 348.94 368.90 C 353.13 367.24 358.12 365.25 362.48 367.45 C 356.81 368.63 350.60 369.13 345.98 372.99 C 342.23 375.78 340.70 380.37 338.93 384.48 C 337.42 377.63 343.27 371.71 348.94 368.90 Z" />
</g>
<g id="#3a7b6cff">
<path fill="#3a7b6c" opacity="1.00" d=" M 154.70 374.63 C 161.51 373.50 168.61 371.59 175.43 373.67 C 167.72 375.14 159.77 375.03 152.17 377.15 C 147.50 378.10 143.30 380.41 138.87 382.06 C 138.41 381.99 137.49 381.85 137.02 381.77 C 141.94 377.50 148.54 376.11 154.70 374.63 Z" />
</g>
<g id="#11445ff4">
<path fill="#11445f" opacity="0.96" d=" M 404.69 428.95 C 405.08 427.94 405.47 426.93 405.86 425.92 C 405.88 426.64 405.93 428.07 405.95 428.78 C 417.28 429.41 428.65 428.84 440.00 429.03 C 472.67 429.03 505.33 429.04 538.00 429.03 C 557.59 428.87 577.20 429.38 596.79 428.76 C 599.19 428.97 601.57 429.29 603.99 429.34 C 625.99 429.25 647.99 429.32 670.00 429.29 C 673.75 429.29 677.53 429.01 681.27 429.51 C 681.51 429.91 681.99 430.71 682.23 431.12 C 576.82 430.95 471.41 431.09 366.00 431.04 C 263.23 431.10 160.45 430.95 57.69 431.12 C 57.93 430.71 58.41 429.90 58.65 429.50 C 59.75 429.36 60.85 429.27 61.95 429.25 C 103.98 429.37 146.01 429.23 188.04 429.33 C 190.26 429.25 192.47 428.90 194.68 428.69 C 202.41 429.80 210.22 429.10 218.00 429.27 C 233.71 429.19 249.42 429.45 265.13 429.11 C 265.59 429.12 266.51 429.14 266.97 429.15 C 309.31 429.47 351.66 429.15 394.00 429.31 C 397.56 429.40 401.14 429.34 404.69 428.95 Z" />
</g>
<g id="#053651dc">
<path fill="#053651" opacity="0.86" d=" M 3.20 429.18 C 14.73 429.15 26.27 429.12 37.81 429.20 C 37.67 429.70 37.39 430.69 37.25 431.19 C 26.09 431.02 14.91 431.01 3.74 431.18 C 3.61 430.68 3.33 429.68 3.20 429.18 Z" />
</g>
<g id="#031f2f80">
<path fill="#031f2f" opacity="0.50" d=" M 3.74 431.18 C 14.91 431.01 26.09 431.02 37.25 431.19 L 37.00 432.00 L 4.00 432.00 L 3.74 431.18 Z" />
<path fill="#031f2f" opacity="0.50" d=" M 57.69 431.12 C 160.45 430.95 263.23 431.10 366.00 431.04 C 471.41 431.09 576.82 430.95 682.23 431.12 L 682.87 432.00 L 57.05 432.00 L 57.69 431.12 Z" />
</g>
</svg>
