<?xml version="1.0" encoding="UTF-8" ?>
<!DOCTYPE svg PUBLIC "-//W3C//DTD SVG 1.1//EN" "http://www.w3.org/Graphics/SVG/1.1/DTD/svg11.dtd">
<svg width="301pt" height="69pt" viewBox="0 0 301 69" version="1.1" xmlns="http://www.w3.org/2000/svg">
<g id="#0077c8ff">
<path fill="#0077c8" opacity="1.00" d=" M 20.54 0.00 L 23.52 0.00 C 26.45 0.56 28.04 3.20 28.19 6.01 C 28.15 8.07 29.73 9.20 31.27 10.23 C 29.70 11.24 28.09 12.20 26.46 13.10 C 30.52 17.11 34.34 21.35 38.33 25.43 C 37.71 26.59 37.09 27.74 36.46 28.89 C 33.82 26.84 31.15 24.84 28.42 22.90 C 30.64 31.17 33.04 39.39 35.14 47.69 C 33.75 47.87 32.36 48.05 30.97 48.23 C 32.07 51.88 33.54 55.41 34.46 59.11 C 34.14 60.81 33.04 62.24 32.34 63.79 C 38.40 64.48 44.54 64.38 50.62 64.11 C 50.97 63.12 51.65 61.14 51.99 60.15 C 52.16 61.03 52.50 62.79 52.66 63.67 C 53.00 63.92 53.68 64.42 54.01 64.67 C 53.69 61.20 53.24 57.75 52.70 54.31 C 50.79 53.51 48.88 52.71 46.98 51.91 C 43.91 55.71 40.87 59.52 37.88 63.37 C 37.02 63.22 35.29 62.93 34.42 62.78 C 36.66 58.33 39.22 54.05 41.57 49.66 C 40.15 48.98 38.74 48.30 37.32 47.61 C 41.49 44.24 45.67 40.89 49.77 37.44 C 45.66 34.79 41.53 32.16 37.48 29.42 C 37.89 28.65 38.71 27.11 39.12 26.34 C 43.26 28.30 47.24 30.62 51.57 32.17 C 50.71 29.17 46.61 29.85 45.30 26.98 C 47.43 26.06 49.68 25.72 51.77 26.94 C 53.75 25.67 56.13 24.22 58.52 25.36 C 60.84 26.01 61.49 28.46 62.21 30.45 C 64.78 30.64 66.55 32.19 67.46 34.56 C 65.28 34.78 62.95 34.93 61.16 33.40 C 60.49 34.08 59.83 34.75 59.17 35.43 C 62.11 37.73 65.00 40.10 67.88 42.47 C 72.14 39.98 76.32 37.36 80.61 34.92 C 78.91 33.39 76.83 31.59 77.24 29.03 C 77.27 24.45 83.52 21.94 86.69 25.25 C 89.11 27.14 88.54 30.43 87.70 32.97 C 91.45 31.91 95.24 31.00 99.02 30.06 C 99.38 30.97 99.74 31.87 100.11 32.78 C 96.42 34.75 92.71 36.67 88.98 38.57 C 93.07 45.30 97.43 51.86 101.67 58.49 C 100.70 59.24 99.74 59.99 98.77 60.74 C 94.42 56.82 90.12 52.84 85.88 48.80 C 83.36 53.89 81.09 59.09 78.72 64.24 C 87.72 64.31 96.73 64.15 105.73 64.33 C 105.64 65.13 105.47 66.74 105.38 67.54 C 104.26 67.69 103.14 67.76 102.01 67.77 C 69.43 67.72 36.85 67.75 4.27 67.75 C 4.26 66.76 4.25 65.78 4.25 64.79 C 5.52 64.22 6.50 63.22 6.78 61.82 C 8.05 57.99 9.18 54.11 10.55 50.31 C 8.74 50.47 6.94 50.63 5.14 50.80 C 8.46 41.45 11.89 32.13 15.20 22.78 C 10.97 24.72 6.81 26.80 2.55 28.69 C 1.70 28.04 0.85 27.39 -0.00 26.74 L 0.00 26.20 C 6.21 21.97 12.01 17.16 18.09 12.74 C 16.62 11.89 15.16 11.04 13.70 10.18 C 18.31 8.34 15.57 1.60 20.54 0.00 M 57.77 40.61 C 59.00 46.48 60.41 52.31 61.79 58.15 C 60.92 57.78 59.19 57.06 58.32 56.69 C 58.17 59.21 57.99 61.73 57.78 64.25 C 62.24 64.25 66.70 64.26 71.16 64.24 C 69.85 58.75 68.44 53.29 67.08 47.82 C 69.47 47.05 71.82 46.16 74.14 45.22 C 74.67 47.48 75.32 49.73 75.66 52.04 C 75.25 56.33 73.64 60.44 73.47 64.78 C 75.05 64.09 74.97 62.24 75.39 60.85 C 76.65 54.47 78.02 48.11 79.34 41.74 C 75.51 43.22 71.71 44.78 67.88 46.28 C 64.52 44.38 61.14 42.50 57.77 40.61 M 17.33 49.55 C 15.03 54.43 12.77 59.34 10.54 64.26 C 17.55 64.24 24.56 64.27 31.57 64.24 C 29.38 59.13 27.07 54.07 24.82 48.98 C 22.33 49.19 19.83 49.38 17.33 49.55 Z" />
<path fill="#0077c8" opacity="1.00" d=" M 63.32 0.00 L 66.28 0.00 C 68.88 0.90 71.30 3.05 71.29 6.01 C 71.73 8.80 69.72 10.92 67.94 12.74 C 72.05 15.95 75.98 19.38 80.04 22.66 C 78.74 23.93 77.45 25.20 76.19 26.49 C 74.50 25.39 72.81 24.29 71.13 23.18 C 71.49 28.20 72.00 33.21 72.49 38.22 C 71.01 39.11 69.54 40.00 68.06 40.88 C 66.07 39.27 64.07 37.68 62.02 36.15 C 64.44 36.40 66.82 35.96 69.04 35.01 C 68.07 32.22 66.25 29.92 63.41 28.88 C 62.16 25.97 59.60 24.17 56.75 23.03 C 55.11 23.74 53.47 24.43 51.82 25.12 C 48.69 24.04 45.66 25.24 43.14 27.13 C 42.76 26.76 41.99 26.02 41.61 25.65 C 48.15 21.33 54.57 16.81 61.14 12.54 C 59.68 10.64 57.84 8.62 58.22 6.02 C 58.28 3.09 60.62 0.78 63.32 0.00 Z" />
<path fill="#0077c8" opacity="1.00" d=" M 293.73 22.53 C 296.15 22.51 298.58 22.52 301.00 22.54 L 301.00 66.57 C 294.22 69.19 286.09 69.96 279.44 66.60 C 274.80 64.25 272.59 59.06 272.32 54.10 C 271.91 48.50 272.63 42.00 277.21 38.15 C 281.66 34.08 288.26 34.25 293.79 35.46 C 293.73 31.15 293.76 26.84 293.73 22.53 M 280.15 47.13 C 279.10 51.54 278.99 57.13 282.53 60.50 C 285.57 63.29 290.07 63.17 293.78 61.98 C 293.64 55.35 293.90 48.71 293.67 42.09 C 289.23 38.76 281.37 41.46 280.15 47.13 Z" />
<path fill="#0077c8" opacity="1.00" d=" M 227.20 22.58 C 229.54 22.50 231.89 22.48 234.25 22.49 C 234.26 33.69 234.24 44.89 234.25 56.08 C 234.34 57.97 234.26 60.05 235.43 61.66 C 236.71 63.07 238.52 62.21 240.10 62.00 C 240.42 63.95 240.74 65.90 241.01 67.86 C 237.84 68.39 234.36 69.17 231.34 67.67 C 228.36 65.96 227.32 62.29 227.26 59.06 C 227.20 46.90 227.33 34.74 227.20 22.58 Z" />
<path fill="#0077c8" opacity="1.00" d=" M 174.01 26.94 C 180.50 23.62 188.54 24.67 194.83 27.99 C 194.47 30.03 194.13 32.08 193.81 34.12 C 189.16 31.74 183.40 30.14 178.42 32.46 C 175.66 33.73 175.07 37.69 177.23 39.78 C 181.83 44.07 189.20 43.67 193.42 48.55 C 198.42 54.26 196.03 64.41 188.89 67.16 C 182.07 69.66 173.96 69.14 167.66 65.45 C 168.04 63.46 168.39 61.47 168.73 59.48 C 173.71 62.09 179.91 63.41 185.28 61.28 C 188.27 60.21 189.72 56.09 187.30 53.71 C 183.21 50.28 177.56 49.78 173.20 46.82 C 166.54 42.42 166.69 30.62 174.01 26.94 Z" />
<path fill="#0077c8" opacity="1.00" d=" M 110.57 68.05 C 110.43 53.94 110.48 39.83 110.55 25.73 C 119.62 25.79 128.69 25.72 137.75 25.77 C 137.75 27.76 137.75 29.75 137.75 31.75 C 131.08 31.75 124.42 31.74 117.75 31.75 C 117.74 35.42 117.73 39.10 117.79 42.77 C 123.68 42.73 129.58 42.76 135.48 42.75 C 135.50 44.72 135.52 46.69 135.56 48.66 C 129.63 48.85 123.69 48.70 117.75 48.75 C 117.75 53.09 117.72 57.43 117.78 61.77 C 124.44 61.73 131.09 61.75 137.75 61.76 C 137.75 63.83 137.75 65.91 137.76 67.99 C 128.70 68.05 119.64 67.93 110.57 68.05 Z" />
<path fill="#0077c8" opacity="1.00" d=" M 146.07 36.06 C 151.78 33.43 158.44 34.44 164.06 36.82 C 163.69 38.87 163.33 40.92 162.96 42.97 C 159.18 40.97 154.51 39.68 150.40 41.41 C 148.04 42.11 147.69 45.91 150.02 46.87 C 153.95 48.98 159.06 48.37 162.46 51.55 C 165.72 54.38 165.84 59.45 164.23 63.19 C 162.83 66.45 159.18 67.88 155.90 68.32 C 150.74 68.93 145.39 68.46 140.60 66.35 C 140.93 64.39 141.27 62.42 141.60 60.45 C 146.03 62.28 151.16 63.41 155.82 61.76 C 157.99 60.91 158.78 57.68 156.69 56.29 C 153.07 54.05 148.42 54.42 144.83 52.10 C 139.43 48.46 140.02 38.75 146.07 36.06 Z" />
<path fill="#0077c8" opacity="1.00" d=" M 198.36 36.65 C 204.59 34.59 211.68 33.28 217.92 35.94 C 221.85 37.55 223.82 41.90 223.74 45.96 C 223.78 52.90 223.73 59.84 223.75 66.77 C 216.89 68.84 209.26 69.79 202.36 67.45 C 194.86 64.97 194.91 51.99 202.45 49.62 C 207.08 47.96 212.05 48.62 216.86 48.49 C 216.56 45.90 216.62 42.49 213.81 41.24 C 209.09 39.53 204.01 41.17 199.44 42.63 C 199.08 40.64 198.72 38.64 198.36 36.65 M 206.95 53.91 C 203.51 55.21 203.19 60.85 206.48 62.51 C 209.61 64.25 213.37 63.47 216.72 62.90 C 216.75 59.61 216.75 56.31 216.77 53.02 C 213.50 53.07 210.04 52.62 206.95 53.91 Z" />
<path fill="#0077c8" opacity="1.00" d=" M 241.25 35.26 C 243.55 35.26 245.85 35.24 248.14 35.20 C 248.42 42.12 248.12 49.05 248.28 55.98 C 248.40 58.17 249.00 60.73 251.17 61.79 C 254.63 63.56 258.86 62.84 262.32 61.41 C 262.16 52.69 262.29 43.97 262.25 35.26 C 264.56 35.26 266.86 35.25 269.17 35.21 C 269.37 45.57 269.16 55.94 269.28 66.30 C 263.62 68.79 257.19 69.25 251.12 68.39 C 245.93 67.64 241.51 63.31 241.31 57.96 C 241.15 50.40 241.30 42.83 241.25 35.26 Z" />
<path fill="#0077c8" opacity="1.00" d=" M 59.74 43.21 C 60.86 43.85 61.99 44.48 63.12 45.12 C 62.60 47.12 62.06 49.11 61.49 51.10 C 60.91 48.47 60.33 45.84 59.74 43.21 Z" />
</g>
</svg>
